<svg width="666" height="120" viewBox="0 0 666 120" fill="none" xmlns="http://www.w3.org/2000/svg">
<g clip-path="url(#clip0_1_2)">
<path d="M51.38 31.98C51.38 34.0333 50.0267 36.9267 47.32 40.66L34.58 57.88L47.74 66V91.76C44.5667 92.7867 41.5333 94.1867 38.64 95.96C37.8933 96.4267 36.82 97.1267 35.42 98.06C34.02 98.9 32.34 99.9733 30.38 101.28C25.5267 98.8533 20.8133 97.64 16.24 97.64C11.8533 97.64 7.14 98.7133 2.1 100.86L0.28 99.6L16.94 75.8L3.5 68.38V46.82C9.75333 44.02 15.4933 40.1467 20.72 35.2C28.56 39.0267 34.5333 40.94 38.64 40.94L42.28 40.52C43.5867 40.52 44.8 40.0533 45.92 39.12C47.04 38.0933 47.6 36.9267 47.6 35.62C47.6 34.6867 46.5733 32.9133 44.52 30.3L43.82 29.04C43.82 27.5467 44.94 26.8 47.18 26.8C49.98 26.8 51.38 28.5267 51.38 31.98ZM37.8 48.64C36.68 48.8267 35.4667 48.9667 34.16 49.06C32.8533 49.1533 31.4533 49.2 29.96 49.2C25.6667 49.2 21 48.1733 15.96 46.12L15.82 62.22L24.22 66.56L37.8 48.64ZM36.12 72.02L27.3 67.54L11.76 87.7C14.28 87.14 17.3133 86.86 20.86 86.86C25.7133 86.86 30.7533 88.12 35.98 90.64L36.12 72.02ZM88.5248 44.72H74.2448V85.46L81.6648 91.62L85.5848 88.54L87.1248 90.5L74.5248 101.42C67.8982 96.1 62.0182 92.5533 56.8848 90.78C59.4048 88.1667 60.6648 84.8067 60.6648 80.7V44.58H55.7648L55.9048 42.62L74.1048 19.8L74.2448 37.58H88.5248V44.72ZM114.809 15.04L102.909 29.32H101.089L104.449 15.04H114.809ZM118.449 91.34L105.709 101.7C99.3621 98.34 96.4221 93.6267 96.8888 87.56L97.0288 85.04V48.5L92.9688 44.16L103.329 35.62L114.109 44.58L110.609 48.5V87.28C111.075 89.1467 112.382 90.64 114.529 91.76L117.049 90.08L118.449 91.34ZM160.01 88.82C157.117 90.9667 154.27 93.0667 151.47 95.12C148.67 97.1733 145.87 99.2267 143.07 101.28C136.35 96.6133 129.91 93.6267 123.75 92.32C126.27 90.08 127.53 86.7667 127.53 82.38V46.68C130.703 45.3733 133.69 43.7867 136.49 41.92C139.383 40.0533 142.137 37.9533 144.75 35.62L158.89 44.44L152.87 52.98L140.27 45.84V85.6L152.59 91.76L158.61 87.28L160.01 88.82ZM222.553 91.34L209.813 101.28C206.36 98.76 204.12 94.1867 203.093 87.56L189.653 101.7C181.626 97.22 174.86 94.14 169.353 92.46C171.686 90.1267 172.853 86.7667 172.853 82.38V44.58H165.713V37.58H172.853V25.12C172.853 22.04 171.22 18.8667 167.953 15.6C171.5 16.44 174.533 17.8867 177.053 19.94L179.013 19.8C183.213 15.2267 187.74 12.94 192.593 12.94C188.206 15.6467 186.013 19.8467 186.013 25.54V51.72L204.213 35.76L216.953 49.2C215.646 50.2267 213.92 51.72 211.773 53.68C209.626 55.64 207.06 58.1133 204.073 61.1C207.806 63.8067 210.42 67.1667 211.913 71.18C212.286 71.9267 212.66 73.1867 213.033 74.96C213.5 76.64 214.013 78.7867 214.573 81.4C215.413 85.6 216.626 88.7733 218.213 90.92L220.873 89.52L222.553 91.34ZM205.613 55.36L196.933 46.12L185.873 56.2V72.3L205.613 55.36ZM202.393 83.64C201.74 78.32 198.986 73.6067 194.133 69.5L185.873 76.08V87.7L194.273 92.04L202.393 83.64ZM268.803 53.68C258.537 60.8667 250.463 66.98 244.583 72.02V86.58L256.343 91.76L265.583 85.88L267.123 87.56C265.91 88.3067 264.65 89.1 263.343 89.94C262.13 90.78 260.823 91.7133 259.423 92.74L247.243 101.28C240.99 97.8267 234.55 95.4933 227.923 94.28C230.537 91.5733 231.843 88.1667 231.843 84.06V46.68C235.11 45.1867 238.283 43.5067 241.363 41.64C244.537 39.7733 247.663 37.7667 250.743 35.62L268.803 53.68ZM257.743 58.3L244.443 44.72V68.8L257.743 58.3ZM317.127 45.7L307.887 53.68L299.487 45.42L294.027 49.62V85.88L301.587 91.76L305.647 88.82L307.327 90.5L294.587 101.42C289.361 96.94 283.387 93.3933 276.667 90.78C279.187 88.7267 280.447 85.3667 280.447 80.7V52.56C280.447 50.1333 279.327 47.9867 277.087 46.12L274.707 47.66L273.167 46.12L285.067 35.62C287.961 37.1133 289.967 38.5133 291.087 39.82C292.581 41.4067 293.514 43.6467 293.887 46.54L308.027 35.76L317.127 45.7ZM440.379 91.06C433.285 93.02 426.705 96.6133 420.639 101.84C413.359 98.2933 407.899 96.52 404.259 96.52C400.059 96.52 395.765 98.2933 391.379 101.84C385.032 97.1733 376.865 93.4867 366.879 90.78C369.492 88.4467 370.799 84.8533 370.799 80V47.38C366.692 42.4333 364.639 38.0933 364.639 34.36C364.639 28.3867 369.259 22.9267 378.499 17.98L379.199 19.1C375.465 22.46 373.599 25.54 373.599 28.34C373.599 29.3667 375.279 32.26 378.639 37.02C382.092 41.5933 383.819 45.8867 383.819 49.9L402.719 35.76C408.412 40.1467 411.445 45 411.819 50.32L430.859 35.62C437.205 41.1267 440.379 46.1667 440.379 50.74V91.06ZM428.479 91.48V53.68C428.479 52 427.592 50.2733 425.819 48.5C425.539 48.1267 425.165 47.7533 424.699 47.38C424.325 46.9133 423.812 46.3533 423.159 45.7L411.959 53.96V86.58C413.545 87.14 415.179 87.7 416.859 88.26C418.539 88.82 420.312 89.3333 422.179 89.8C423.392 90.08 425.492 90.64 428.479 91.48ZM398.939 91.48V53.68C398.939 52.4667 398.612 51.3933 397.959 50.46C397.865 50.18 396.512 48.5933 393.899 45.7L383.539 53.96V85.6C387.365 87.3733 392.499 89.3333 398.939 91.48ZM468.09 15.04L456.19 29.32H454.37L457.73 15.04H468.09ZM471.73 91.34L458.99 101.7C452.643 98.34 449.703 93.6267 450.17 87.56L450.31 85.04V48.5L446.25 44.16L456.61 35.62L467.39 44.58L463.89 48.5V87.28C464.357 89.1467 465.663 90.64 467.81 91.76L470.33 90.08L471.73 91.34ZM511.191 79.16C511.191 85.4133 508.251 90.4067 502.371 94.14C501.905 94.42 500.318 95.3533 497.611 96.94C494.998 98.4333 491.171 100.533 486.131 103.24C483.051 105.107 481.511 107.627 481.511 110.8C481.511 113.507 483.005 115.28 485.991 116.12C486.551 116.12 487.438 115.98 488.651 115.7C489.865 115.42 490.751 115.28 491.311 115.28C492.711 115.28 493.411 115.793 493.411 116.82C493.411 117.847 492.198 118.733 489.771 119.48C487.065 119.48 484.778 118.547 482.911 116.68C481.138 114.907 480.251 112.667 480.251 109.96C480.251 106.973 481.231 104.407 483.191 102.26L489.911 96.8C492.991 94.1867 494.998 92.1333 495.931 90.64C497.331 88.5867 498.031 86.2067 498.031 83.5C498.031 80.0467 497.005 77.5267 494.951 75.94C492.991 74.26 490.191 73.42 486.551 73.42C483.938 73.42 480.905 73.7933 477.451 74.54L497.051 55.36L485.151 44.16L477.451 49.2L476.191 47.24L493.411 35.62C494.158 36.3667 495.138 37.3 496.351 38.42C497.565 39.4467 498.965 40.66 500.551 42.06C503.911 44.86 506.898 46.4467 509.511 46.82L492.431 63.9C497.471 63.9 501.765 65.1133 505.311 67.54C509.231 70.34 511.191 74.2133 511.191 79.16ZM566.666 91.34L554.626 101.42C548.653 98.2467 545.666 93.2067 545.666 86.3L526.626 101.56H525.926C519.3 95.4 515.986 89.4267 515.986 83.64C515.986 75.0533 520.606 66.6067 529.846 58.3L523.126 40.8L524.946 40.94C530.173 41.4067 534.98 39.5867 539.366 35.48L559.246 42.06L563.166 38.98L563.446 39.54C561.206 42.9933 559.62 46.5867 558.686 50.32V87C559.34 89.3333 560.646 90.78 562.606 91.34L565.126 90.08L566.666 91.34ZM545.666 65.02V49.62L525.366 42.06L531.246 58.02L545.666 65.02ZM545.806 82.66V67.54L531.246 60.26C528.54 65.1133 527.186 69.6867 527.186 73.98C527.186 80.3267 529.893 86.2067 535.306 91.62L545.806 82.66ZM615.174 45.7L605.934 53.68L597.534 45.42L592.074 49.62V85.88L599.634 91.76L603.694 88.82L605.374 90.5L592.634 101.42C587.408 96.94 581.434 93.3933 574.714 90.78C577.234 88.7267 578.494 85.3667 578.494 80.7V52.56C578.494 50.1333 577.374 47.9867 575.134 46.12L572.754 47.66L571.214 46.12L583.114 35.62C586.008 37.1133 588.014 38.5133 589.134 39.82C590.628 41.4067 591.561 43.6467 591.934 46.54L606.074 35.76L615.174 45.7ZM665.868 45V91.06C657.655 93.7667 650.748 97.36 645.148 101.84C637.682 96.4267 629.282 92.74 619.948 90.78C622.562 88.4467 623.868 84.8533 623.868 80V46.54C625.548 46.0733 627.415 45.42 629.468 44.58C631.615 43.6467 633.995 42.5267 636.608 41.22L618.828 29.74V16.44L661.388 43.6C662.602 41.5467 664.468 40.0067 666.988 38.98C666.242 41.0333 665.868 43.04 665.868 45ZM652.568 90.78V51.58L641.508 44.16L636.888 46.96V85.18L652.568 90.78Z" fill="white"/>
</g>
<defs>
<clipPath id="clip0_1_2">
<rect width="666" height="120" fill="white"/>
</clipPath>
</defs>
</svg>
